<?xml version="1.0" encoding="UTF-8"?>
<svg version="1.1" xmlns="http://www.w3.org/2000/svg" width="500" height="499">
<path d="M0 0 C165 0 330 0 500 0 C500 164.67 500 329.34 500 499 C335 499 170 499 0 499 C0 334.33 0 169.66 0 0 Z " fill="#FAFBFB" transform="translate(0,0)"/>
<path d="M0 0 C1.78887357 -0.03657368 3.57747689 -0.0910594 5.36523438 -0.1640625 C20.20785159 -0.7610686 20.20785159 -0.7610686 24.84619141 2.54736328 C29.07373047 7.86107107 29.07373047 7.86107107 29.07373047 11.56982422 C31.00409138 9.782453 32.75855744 8.11851667 34.07621765 5.8245697 C36.90143719 0.93991309 36.90143719 0.93991309 40.02554321 -0.0463562 C42.41031925 -0.24020729 44.70286106 -0.21816432 47.09326172 -0.11376953 C48.38111824 -0.09891258 48.38111824 -0.09891258 49.69499207 -0.08375549 C52.42717077 -0.04468506 55.15527463 0.04311187 57.88623047 0.13232422 C59.74229207 0.16744808 61.5984169 0.19938523 63.45458984 0.22802734 C67.99586441 0.30505164 72.53410761 0.42577454 77.07373047 0.56982422 C77.4967041 1.30507324 77.91967773 2.04032227 78.35546875 2.79785156 C79.95385993 5.57529078 81.5530814 8.35224987 83.15283203 11.12890625 C83.83967867 12.32142849 84.52621211 13.51413118 85.21240234 14.70703125 C86.20958539 16.44043863 87.20806117 18.17310212 88.20654297 19.90576172 C88.85268555 21.03336914 89.49882812 22.16097656 90.16455078 23.32275391 C91.39254689 25.41128948 92.66014136 27.47730035 93.97509766 29.51220703 C94.82442871 30.82850098 94.82442871 30.82850098 95.69091797 32.17138672 C96.19993652 32.93016113 96.70895508 33.68893555 97.23339844 34.47070312 C98.07373047 36.56982422 98.07373047 36.56982422 97.36816406 38.62963867 C96.94100098 39.2698999 96.51383789 39.91016113 96.07373047 40.56982422 C95.70860352 41.13515869 95.34347656 41.70049316 94.96728516 42.28295898 C94.56413086 42.85328857 94.16097656 43.42361816 93.74560547 44.01123047 C93.2829126 44.66728271 92.82021973 45.32333496 92.34350586 45.99926758 C91.84197998 46.70317627 91.3404541 47.40708496 90.82373047 48.13232422 C90.29577881 48.87683838 89.76782715 49.62135254 89.22387695 50.38842773 C84.67885875 56.77298541 80.08090879 63.12206847 75.34692383 69.36816406 C72.31274211 73.3941385 69.51325901 77.42060691 66.96435547 81.77294922 C59.91091928 93.44528104 59.91091928 93.44528104 54.76757812 95.48388672 C49.14202823 96.66798047 43.50685647 96.53733739 38.07373047 94.56982422 C34.67569917 91.95860191 33.07180422 89.28579903 31.07373047 85.56982422 C30.41373047 85.56982422 29.75373047 85.56982422 29.07373047 85.56982422 C28.80818359 86.21951172 28.54263672 86.86919922 28.26904297 87.53857422 C26.90919159 90.7545731 25.81616096 92.35994521 23.07373047 94.56982422 C16.6783378 96.57684096 9.45836123 96.60880897 3.07373047 94.56982422 C-1.06932628 91.17430757 -3.21569747 87.39008654 -5.71289062 82.71289062 C-7.88226009 78.88135639 -10.55859094 75.41543488 -13.17626953 71.88232422 C-14.27398251 70.36638014 -15.37031382 68.84943472 -16.46533203 67.33154297 C-25.80565092 54.23770601 -25.80565092 54.23770601 -35.609375 41.49731445 C-36.92626953 39.56982422 -36.92626953 39.56982422 -36.89501953 36.81591797 C-35.65264433 32.65295913 -33.69906655 29.31277543 -31.42626953 25.63232422 C-30.98355713 24.89884766 -30.54084473 24.16537109 -30.0847168 23.40966797 C-29.16475622 21.88670389 -28.2409675 20.36604606 -27.31347656 18.84765625 C-25.96072823 16.62640634 -24.62582221 14.39551403 -23.29736328 12.15966797 C-16.39659051 0.55937129 -13.40846706 0.21314391 0 0 Z " fill="#3D3F4B" transform="translate(220.92626953125,202.43017578125)"/>
<path d="M0 0 C5.10718997 0.17279076 8.96710733 0.38472985 12.73095703 4.06787109 C15.40423689 7.39434077 17.52267985 11.03578724 19.60058594 14.75537109 C22.02260544 18.89429744 24.94667131 22.66551492 27.80517578 26.50927734 C28.89190591 28.0120351 29.97536107 29.51716781 31.05517578 31.02490234 C31.55791016 31.72679687 32.06064453 32.42869141 32.57861328 33.15185547 C35.4129232 37.12537006 38.21813342 41.11875785 40.99267578 45.13427734 C41.64494141 44.28865234 42.29720703 43.44302734 42.96923828 42.57177734 C43.39035889 42.02593994 43.81147949 41.48010254 44.24536133 40.91772461 C45.16331354 39.72476234 46.07882842 38.5299208 46.99194336 37.33325195 C48.96438469 34.75001726 50.94233783 32.19447033 53.02783203 29.70068359 C56.21462399 25.88904351 56.21462399 25.88904351 57.18017578 21.13427734 C55.59501037 17.12964893 53.42770402 13.67450291 50.99267578 10.13427734 C47.35707917 13.56789636 44.63154232 16.93163804 41.99267578 21.13427734 C35.50386981 14.82084451 35.50386981 14.82084451 33.99267578 12.13427734 C34.11207025 7.59728752 35.98715703 4.44387351 38.99267578 1.13427734 C46.32941332 -1.28467347 55.69853729 -1.38983854 62.99267578 1.13427734 C68.51837399 5.65131636 72.44533766 13.19361195 73.99267578 20.13427734 C73.4702298 24.88411133 71.29497063 27.95344441 68.49267578 31.69677734 C68.0434375 32.31101563 67.59419922 32.92525391 67.13134766 33.55810547 C65.76185439 35.42454565 64.37996654 37.28103784 62.99267578 39.13427734 C61.84798828 40.66375 61.84798828 40.66375 60.68017578 42.22412109 C59.2221514 44.16381425 57.76121183 46.10131955 56.29736328 48.03662109 C53.24363056 52.1410449 50.28614492 56.31140801 47.35400391 60.50341797 C45.39740107 63.2771339 43.4328529 65.78009573 40.99267578 68.13427734 C40.13590495 66.97151693 39.27913411 65.80875651 38.42236328 64.64599609 C37.86282959 63.88665771 37.3032959 63.12731934 36.72680664 62.3449707 C35.4696973 60.63883478 34.21270166 58.93261506 32.95581055 57.22631836 C29.77407438 52.90726058 26.59091291 48.58927946 23.40283203 44.27490234 C19.92507214 39.56700715 16.45562621 34.85307578 12.99267578 30.13427734 C12.3784375 29.29783691 11.76419922 28.46139648 11.13134766 27.59960938 C9.30966541 25.11450427 7.49397771 22.62513795 5.68017578 20.13427734 C5.12257568 19.37429443 4.56497559 18.61431152 3.99047852 17.83129883 C3.22392944 16.77471069 3.22392944 16.77471069 2.44189453 15.69677734 C1.99160889 15.07931641 1.54132324 14.46185547 1.07739258 13.82568359 C-0.00732422 12.13427734 -0.00732422 12.13427734 -1.00732422 9.13427734 C-3.42490201 11.37356769 -5.14163473 13.6752167 -6.81982422 16.50927734 C-7.51011719 17.63462891 -7.51011719 17.63462891 -8.21435547 18.78271484 C-9.28729007 21.96452091 -8.41972703 23.14035177 -7.00732422 26.13427734 C-6.06545048 27.58742551 -5.07013556 29.00700221 -4.03076172 30.39208984 C-3.44568848 31.17801514 -2.86061523 31.96394043 -2.2578125 32.77368164 C-1.63890137 33.59392822 -1.01999023 34.4141748 -0.38232422 35.25927734 C0.88354438 36.95571018 2.14917044 38.65232403 3.41455078 40.34912109 C4.0275 41.16751465 4.64044922 41.9859082 5.27197266 42.82910156 C7.49606322 45.80865081 9.68546739 48.81142872 11.86767578 51.82177734 C12.48384766 52.67126953 13.10001953 53.52076172 13.73486328 54.39599609 C14.14994141 54.96962891 14.56501953 55.54326172 14.99267578 56.13427734 C13.6712347 58.9253585 12.18885217 61.39214123 10.36767578 63.88427734 C9.69865234 64.80466797 9.69865234 64.80466797 9.01611328 65.74365234 C8.67837891 66.20255859 8.34064453 66.66146484 7.99267578 67.13427734 C4.67667332 66.02894319 4.26890083 65.50941895 2.34814453 62.76708984 C1.84275146 62.05512451 1.3373584 61.34315918 0.81665039 60.60961914 C0.27661377 59.83400635 -0.26342285 59.05839355 -0.81982422 58.25927734 C-1.98033863 56.62188917 -3.14183144 54.9851941 -4.30419922 53.34912109 C-4.908125 52.49560059 -5.51205078 51.64208008 -6.13427734 50.76269531 C-9.2327439 46.41466469 -12.39972788 42.11772191 -15.56982422 37.82177734 C-16.1528833 37.02852051 -16.73594238 36.23526367 -17.33666992 35.41796875 C-17.8892749 34.66821777 -18.44187988 33.9184668 -19.01123047 33.14599609 C-19.52572754 32.44394043 -20.04022461 31.74188477 -20.5703125 31.01855469 C-22.11444939 28.93995875 -22.11444939 28.93995875 -24.47216797 26.40380859 C-26.00732422 24.13427734 -26.00732422 24.13427734 -26.06982422 21.86865234 C-24.48010988 17.77747574 -22.28086928 14.12931129 -20.00732422 10.38427734 C-19.54326172 9.60439453 -19.07919922 8.82451172 -18.60107422 8.02099609 C-13.63268898 -0.2837176 -9.65026272 0.21681012 0 0 Z " fill="#F6F7F7" transform="translate(227.00732421875,216.86572265625)"/>
</svg>
